<svg version="1.1" id="Layer_1" xmlns="http://www.w3.org/2000/svg" xmlns:xlink="http://www.w3.org/1999/xlink" x="0px" y="0px"
	 viewBox="0 0 1366 768" style="enable-background:new 0 0 1366 768;" xml:space="preserve">
<style type="text/css">
	.st0{fill:none;stroke:#000000;stroke-width:3;stroke-miterlimit:10;}
	.st1{fill:none;stroke:#000000;stroke-width:2;stroke-miterlimit:10;}
	.st2{fill:none;stroke:#000000;stroke-width:4;stroke-miterlimit:10;}
	.st3{fill:none;stroke:#000000;stroke-miterlimit:10;}

    <defs>
        <style>
            #about-me {
                stroke-dasharray: 1600;
                stroke-dashoffset: 0;
                -webkit-animation: draw 5s linear forwards;
            }
            @-webkit-keyframes draw {
                from {
                    stroke-dashoffset: 1600;
                }
                to {
                    stroke-dashoffset: 0;
                }
            }
            #cup .st1{
                fill: green;
            }
            #hand .st1{
                fill: red;
            }
            #shirt .st1 {
                -webkit-animation: color 1s linear forwards;
                -webkit-animation-delay: 1s;
            }
            @-webkit-keyframes color {
                from {
                    fill: none;
                }
                to {
                    fill: blue;
                }   
            }
        </style>
    </defs>
    </style>
<g id="about-me">
	<rect id="background" x="529" y="62" class="st0" width="397.8" height="318.8"/>
	<g id="hand">
		<line class="st1" x1="609" y1="330" x2="599" y2="337"/>
		<line class="st1" x1="624.1" y1="351" x2="612" y2="354"/>
		<path class="st1" d="M616.5,373.5l37-6c4.6,2.6,8.8,5.5,12.1,8.3c2,1.8,3.6,3.5,4.6,5.2c0.1,0.2,0.2,0.3,0.3,0.5h-93l-2-40
			c6-10.8,10.4-22.3,13.4-34.5c4-16.3,2.9-33.7,1.8-52.2c-0.1-1.7,1.5-3,3.1-2.6c2.8,0.7,5.9,1.6,7.7,2.9c7,4.7,8.8,14.9,6.6,26
			c-0.1,0.3-0.1,0.6,0,0.8c2.5,18.3,2.9,33.5,0.4,48.6l22.3-14.9c1.1-0.8,2.4-1.3,3.8-1.5l19.5-3.8l14.5-2.8l19-1
			c4.8,0.8,6,4.1,5.2,8.8c-0.5,2.5-2.2,4.6-4.6,5.4l-20.5,6.8l-22,6l-22,18l25.4-4.5c1.7-0.3,3.4,0.3,4.5,1.6
			c6.8,7.8,11,16.9,13.1,26.9"/>
	</g>
	<g id="shirt">
		<line class="st1" x1="754.2" y1="274.9" x2="654" y2="310.3"/>
		<polyline class="st1" points="670.2,381 926.8,380.8 926.5,307.5 864.4,277.8 		"/>
		<path class="st1" d="M754.2,275.5c-5.7,1-9.7,10-10.7,15c-3,14,1.7,30,9,42.5c19,34.5,58.8,41.4,84,27.5
			c21.1-11.7,34.3-28.1,36.8-50.8c0.2-1.6,0.2-3.2,0.1-4.7c-0.7-10.3-3.5-22.8-8.9-26.4"/>
	</g>
	<g id="mouth">
		<path class="st1" d="M784.5,246.5c16,6.3,33.4,8.3,52,6"/>
		<path class="st1" d="M800.5,269.5c4.7-2.9,9.3-2.5,14,1"/>
		<path class="st1" d="M799.5,258.5c0,0,10,4,19,2"/>
	</g>
	<g id="cup">
		<path class="st1" d="M621.2,136.8c1.8-5.6,1.3-12.3,1.3-12.3s-1-11-6-13c-3.2-2.1-7.3-0.2-12,4c-3,3.6-5.4,9.5-7,18
			c-0.5,7.2,0.1,12.9,1.9,17.3"/>
		<path class="st1" d="M582.2,165l5.3-41.5c0,0,1-13,15-20c6.5-2.3,13.5-3,22,0c5.8,3.6,8.3,10.1,10,17l2,8.9"/>
		<path class="st1" d="M558.8,197.6c0.5-0.8,1.1-1.4,1.8-1.8c6.3-4.2,19.5,4.7,29.5,19.9c10,15.1,13,30.8,6.7,35c-1,0.7-2.3,1-3.7,1
			c-0.2,0-0.4,0-0.7,0c-6.9-0.5-17.1-8.7-25.2-20.9C558.4,217.3,555.1,203.4,558.8,197.6z"/>
		<path class="st1" d="M636.5,129.4c1.1-0.5,2.3-0.9,3.5-1.4c26.4,1.4,44.8,19,55,51c2,7,4.7,24.1-3,36c-24.6,18.4-49.2,30.9-74,35
			c-8.1,1.3-16.4,1.9-24.9,1.6c-0.2,0-0.4,0-0.7,0c-0.7,0-1.3,0-2-0.1"/>
		<path class="st1" d="M599.4,150.8c7-5.2,14.3-9.9,21.7-14"/>
		<path class="st1" d="M558.8,197.6c3.3-9.1,10.1-19.2,21.2-30.6c0.7-0.7,1.5-1.4,2.2-2"/>
	</g>
	<g id="head">
		<g>
			<g id="Head">
				<path class="st1" d="M729.5,170.5c0,0,5.9,3.5,10.8,9c0.1,0.1,0.2,0.2,0.2,0.3c0.3-3.2,0.6-6.3,1-9.3c0.2-1.7,0.4-3.4,0.7-5.1
					c1.8-11.9,4.4-21.9,8.2-28.9c-0.6-13.3,2.3-25.4,9-36c3.1-4.8,8.6-8.8,16-12c1.6,4.2-0.4,8.5-7,13c26.7,6.1,58.4-4.6,87-15
					l20,18c5.8,11,6.6,23.5,4,37c3.3,7.6,4.7,17.7,5.2,29c0.1,1.7,0.1,3.4,0.1,5.1c0,3.1,0,6.3,0,9.6c0,0.1,0,0.2,0,0.3l0,0"/>
				<path class="st1" d="M864.7,264.4L864.7,264.4c-1,4-2.9,7.7-5.4,10.9c-1.1,1.4-2.3,2.7-3.7,3.8l-19.4,16.6
					c-6.1,5.2-14.1,7.6-22.1,6.7l-21.3-2.6c-7.5-0.9-14.4-4.8-19-10.8l-18-23c-0.6-0.8-1.2-1.6-1.7-2.4c-2.2-3.5-3.6-7.5-4.2-11.6
					l-4.6-35.6l-4.8-36.9l-1.5-11.9l-0.3-2.3l-5.5-42.1c-0.1-0.9,0-1.9,0.3-2.8l9-27.2c0.2-0.6,0.5-1.2,0.9-1.7
					c8.1-11.3,17.4-21.2,28.3-29.5l96-0.5c11.1,12.1,18.9,25.3,23.8,39.4c0.1,0.4,0.3,0.9,0.3,1.3l4.7,31c0.1,0.9,0.1,1.8-0.1,2.7
					l-8.2,35.8l-0.6,2.7l-2.4,10.5l-0.2,0.7"/>
				<polyline class="st1" points="884.8,185.6 874.3,226.8 864.7,264.4 				"/>
			</g>
			<path class="st1" d="M742.5,171.5c-0.3-0.4-0.6-0.7-0.9-1.1c-0.9-1.1-1.8-2-2.8-2.8c-1.2-1-2.4-1.8-3.6-2.4
				c-2.1-1-4.4-1.3-6.7-0.7c-4.4,5-5.3,10.4-4,16c4.9,7.9,7.8,14.8,8,20l1,12c2.2,6.7,6.5,5.4,11.7,3.9"/>
			<path class="st1" d="M891.5,180.5c0,0-3.2,2-6.7,5.1l0,0c-0.1,0.1-0.2,0.1-0.2,0.2"/>
			<path class="st1" d="M884.8,175.7c0.9-0.5,1.7-0.9,2.5-1.3c0.3-0.2,0.7-0.3,1-0.4c3.8-1.7,6.9-2.1,7.2,0.6
				c-0.1,10.5-5,23.3-11,39c1.4,5.3-1.7,9-3,10c-2.1,1.2-4.6,2.3-7.2,3.3"/>
		</g>
		<path class="st1" d="M754,263.6c0.1,3.3,0.2,7.2,0.3,11.3c0,0.2,0,0.4,0,0.6c0.1,12.4-0.6,26.8-3.7,33"/>
		<path class="st1" d="M864.7,264.4L864.7,264.4c-0.2,4.1-0.3,8.8-0.3,13.4c0,0.2,0,0.5,0,0.7c0,13,0.8,26.2,4.1,29"/>
	</g>
	<g id="nose">
		<path class="st1" d="M802.5,222.5c-11,1-4-13.5-4-13.5"/>
		<path class="st1" d="M826.6,225.1c10.8,2.1,5.4-13,5.4-13"/>
		<path class="st1" d="M828.5,222.5l-3-2c-3.6,3.8-7.3,5-11,5c-3.8-1.2-6.7-3.8-9-7l-3,1"/>
	</g>
	<g id="glasses">
		<path class="st2" d="M735.2,165.2l3.3,0.1l3.8,0.1l5.8,0.1h0.4c22.7-5.8,42.6-3.7,60.2,5.6c0.3,0.1,0.5,0.3,0.8,0.4
			c-0.3,7.2-2.8,13.3-6,19c-18.1,3.3-35,2.8-50-4c-4.6-10.1-5.5-17.6-5.4-21"/>
		<path class="st2" d="M828.1,171.7c-0.4,0.2-0.8,0.3-1.2,0.5c-0.2,3.3,0.2,6.5,0.8,9.5c0.8,3.5,2,6.8,3.4,10
			c16.4,4.6,32.2,5.8,46.8,1.6c1.1-0.3,2.3-0.7,3.4-1.1c1.3-2.3,2.3-4.4,3.2-6.4c0.1-0.2,0.2-0.4,0.2-0.6c0.1-0.1,0.1-0.2,0.2-0.3
			c2-4.6,2.9-8.3,3.4-11c0.1-0.8,0.2-1.6,0.3-2.2c-0.3,0-0.4,0-0.4,0c-0.1,0-0.1-0.1-0.2-0.1c-1.1-0.4-2.2-0.8-3.3-1.1
			C864.1,164,845.3,164.6,828.1,171.7"/>
		<path class="st2" d="M808.7,171.1c0,0,7-2.3,19.4,0.6l0,0"/>
	</g>
	<g id="eyes">
		<path class="st3" d="M776.9,165.2c-5.3,0.7-7.4,3.3-7.4,3.3"/>
		<path class="st3" d="M802.5,172.5c-8.8-4.9-15.6-6.9-20.5-7.4"/>
		<path class="st3" d="M838.6,170.4c-3.5,1.6-5.1,4.1-5.1,4.1"/>
		<path class="st3" d="M863.5,175.5c-8-5.1-14.2-6.6-18.8-6.5"/>
		<path class="st3" d="M782,165.1c1.5,0.9,2.5,2.5,2.5,4.4c0,2.8-2.2,5-5,5s-5-2.2-5-5c0-1.8,1-3.4,2.4-4.3
			C778.4,165,780,165,782,165.1z"/>
		<path class="st3" d="M844.7,169c1.6,0.8,2.8,2.5,2.8,4.5c0,2.8-2.2,5-5,5s-5-2.2-5-5c0-1.2,0.4-2.3,1.1-3.1
			C840.2,169.7,842.2,169.1,844.7,169z"/>
	</g>
	<g id="eyebrows">
		<path d="M868.3,150.7L876,161l-1,1l-9.1-6.9c0.3-0.1,0.6-0.1,0.9-0.2l-2.1-0.7l1.2,0.9c-2.4,0.4-4.9,0.8-7.3,1.2l-8.2,1.2
			c-2.8,0.4-5.5,0.8-8.2,1.1l-4.1,0.5c-1.4,0.2-2.8,0.3-4.2-0.2l-0.6-5c1.3-0.8,2.7-1,4-1.2l4.1-0.5c2.8-0.3,5.5-0.6,8.3-0.9
			l8.3-0.8c2.8-0.2,5.5-0.5,8.3-0.6l1.5-0.1L868.3,150.7z"/>
		<path d="M803.3,153.1l-1.6,4.7c-1.7,0.5-3-0.2-4.4-0.6l-4.1-1.4L785,153c-2.7-1-5.5-2-8.2-3c-2.3-0.9-4.7-1.8-7-2.7l1.4-1
			l-2.5,0.5c0.4,0.2,0.7,0.3,1.1,0.5L759,155l-1-1.1l9.8-11.3l0.8-0.9l1.6,0.4c2.8,0.7,5.6,1.6,8.4,2.4c2.8,0.8,5.6,1.7,8.3,2.5
			l8.3,2.6l4.1,1.4C800.8,151.5,802.2,151.8,803.3,153.1z"/>
	</g>
</g>
</svg>
