<svg version="1.1" id="about-me-svg" xmlns="http://www.w3.org/2000/svg" xmlns:xlink="http://www.w3.org/1999/xlink" x="0px" y="0px" viewBox="0 0 400.8 322" style="enable-background:new 0 0 400.8 322;" xml:space="preserve">
<style type="text/css">

    .st0{fill:none;stroke:#000000;stroke-width:5;stroke-miterlimit:10;}
	.st1{fill:#379B9B;}
	.st2{fill:#04C2C9;}
	.st3{fill:#3D485C;}
	.st4{fill:#81573D;}
	.st5{fill:#232323;}
	.st6{fill:#FFBC99;}
	.st7{fill:none;stroke:#000000;stroke-width:4;stroke-miterlimit:10;}
	.st8{fill:none;stroke:#000000;stroke-width:5;stroke-miterlimit:10;}
	.st9{fill:none;stroke:#000000;stroke-miterlimit:10;}

            <!-- #me {
                stroke-dasharray: 1600;
                stroke-dashoffset: 0;
                -webkit-animation: draw 5s linear forwards;
            }
            @-webkit-keyframes draw {
                from {
                    stroke-dashoffset: 1600;
                }
                to {
                    stroke-dashoffset: 0;
                }
            }
            .st1 {
                fill: none;
                animation: cupColorBottom 1s linear forwards;
                animation-delay: 4s;
            }
            .st2 {
                fill: none;
                animation: cupColor 1s linear forwards;
                animation-delay: 4s;
            }
            .st3 {
                fill: none;
                animation: shirtColor 1s linear forwards;
                animation-delay: 4s;
            }
            .st4 {
                fill: none;
                animation: hairColor 1s linear forwards;
                animation-delay: 4s;
            }
            .st6 {
                fill: none;
                animation: skinColor 1s linear forwards;
                animation-delay: 4s;
            }
            #background {
                fill: none;
                animation: backgroundColor 1s linear forwards;
                animation-delay: 4s;
            }

            @-webkit-keyframes skinColor {
                from {
                    fill: none;
                }
                to {
                    fill: #FFBC99;
                }
            }
            @-webkit-keyframes shirtColor {
                from {
                    fill: none;
                }
                to {
                    fill: #3D485C;
                }
            }
            @-webkit-keyframes cupColor {
                from {
                    fill: none;
                }
                to {
                    fill: #04C2C9;
                }
            }
            @-webkit-keyframes cupColorBottom {
                from {
                    fill: none;
                }
                to {
                    fill: #379B9B;
                }
            }
            @-webkit-keyframes hairColor {
                from {
                    fill: none;
                }
                to {
                    fill: #81573D;
                }
            }
            @-webkit-keyframes backgroundColor {
                from {
                    fill: none;
                }
                to {
                    fill: #c9c9c9;
                }
            }
			 -->
</style>

<g id="me">
	<rect id="background" x="1.5" y="1.5" class="st0" width="397.8" height="318.8"/>
			<g>
				<path class="st1" d="M62.6,155.2c10,15.1,13,30.8,6.7,35c-0.7,0.5-1.6,0.8-2.6,0.9c-0.4,0-0.7,0-1.1,0c-0.2,0-0.4,0-0.7,0
					c-0.3,0-0.6,0-0.9,0c-6.9-1.1-16.5-9.1-24.3-20.8c-8.8-13.5-12.1-27.4-8.4-33.2c0.5-0.8,1.1-1.4,1.8-1.8
					C39.4,131.1,52.6,140,62.6,155.2z"/>
				<path class="st2" d="M167.5,118.5c2,7,4.7,24.1-3,36c-24.6,18.4-49.2,30.9-74,35c-7.8,1.2-15.7,1.9-23.8,1.6
					c1-0.1,1.9-0.4,2.6-0.9c6.3-4.2,3.3-19.9-6.7-35c-10-15.2-23.2-24.1-29.5-19.9c-0.7,0.4-1.3,1-1.8,1.8
					c3.3-9.1,10.1-19.2,21.2-30.6c0.7-0.7,1.5-1.4,2.2-2L60,63c0,0,1-13,15-20c6.5-2.3,13.5-3,22,0c5.8,3.6,8.3,10.1,10,17l2,8.9
					c1.1-0.5,2.3-0.9,3.5-1.4C138.9,68.9,157.3,86.5,167.5,118.5z M93.7,76.3C95.5,70.7,95,64,95,64s-1-11-6-13
					c-3.2-2.1-7.3-0.2-12,4c-3,3.6-5.4,9.5-7,18c-0.5,7.2,0.1,12.9,1.9,17.3C78.9,85.1,86.2,80.4,93.7,76.3L93.7,76.3z"/>
				<path class="st3" d="M126.6,249.8L126.6,249.8L126.6,249.8l100.1-35.4h0.1c0,0.2,0,0.4,0,0.6h-0.1c-5.7,1-9.7,10-10.7,15
					c-3,14,1.7,30,9,42.5c19,34.5,58.8,41.4,84,27.5c21.1-11.7,34.3-28.1,36.8-50.8c0.2-1.6,0.2-3.2,0.1-4.7
					c-0.7-10.3-3.5-22.8-8.9-26.4h-0.1c0,0,0-0.1,0-0.1c0-0.2,0-0.5,0-0.7L399,247l0.3,73.3l-256.6,0.2c-1-1.7-2.6-3.4-4.6-5.2
					l1.1-0.3c-2.1-10-6.3-19.1-13.1-26.9c-1.1-1.3-2.8-1.9-4.5-1.6L96.2,291l22-18l22-6l20.5-6.8c2.4-0.8,4.1-2.9,4.6-5.4
					c0.8-4.7-0.4-8-5.2-8.8l-19,1L126.6,249.8z"/>
				<path class="st4" d="M369,72.7c0.1,0.9,0.1,1.8-0.1,2.7l-8.2,35.8c-0.1,0-0.1-0.1-0.2-0.1c-1.1-0.4-2.2-0.8-3.3-1.1
					c0,0-0.1,0-0.1,0c-0.5-11.3-1.9-21.4-5.2-29c2.6-13.5,1.8-26-4-37l-20-18c-28.6,10.4-60.3,21.1-87,15c6.6-4.5,8.6-8.8,7-13
					c-7.4,3.2-12.9,7.2-16,12c-6.7,10.6-9.6,22.7-9,36c-3.8,7-6.4,17-8.2,28.9l-3.5-0.1v0l-5.5-42.1c-0.1-0.9,0-1.9,0.3-2.8l9-27.2
					c0.2-0.6,0.5-1.2,0.9-1.7c8.1-11.3,17.4-21.2,28.3-29.5l96-0.5c11.1,12.1,18.9,25.3,23.8,39.4c0.1,0.4,0.3,0.9,0.3,1.3L369,72.7
					z"/>
				<path class="st5" d="M317.2,108.5c1.6,0.8,2.8,2.5,2.8,4.5c0,2.8-2.2,5-5,5s-5-2.2-5-5c0-1.2,0.4-2.3,1.1-3.1
					C312.7,109.2,314.7,108.6,317.2,108.5z"/>
				<path class="st5" d="M254.5,104.6c1.5,0.9,2.5,2.5,2.5,4.4c0,2.8-2.2,5-5,5s-5-2.2-5-5c0-1.8,1-3.4,2.4-4.3
					C250.9,104.5,252.5,104.5,254.5,104.6z"/>
				<path class="st6" d="M357.6,124.9l0.1-0.5l0.4-1.6c1.5-3.8,2.3-6.9,2.7-9.3c0,0,0,0,0,0c3.8-1.7,6.9-2.1,7.2,0.6
					c-0.1,10.5-5,23.3-11,39c1.4,5.3-1.7,9-3,10c-2.1,1.2-4.6,2.3-7.2,3.3l0,0l0-0.1l10.5-41.2C357.4,125,357.5,124.9,357.6,124.9z"
					/>
				<path class="st6" d="M213,119l0,0.1l4.8,36.8h-0.1c-5.2,1.5-9.5,2.8-11.7-3.9l-1-12c-0.2-5.2-3.1-12.1-8-20
					c-1.3-5.6-0.4-11,4-16c2.3-0.6,4.6-0.3,6.7,0.7c1.2,0.6,2.4,1.4,3.6,2.4c0.1,0.1,0.1,0.1,0.2,0.2L213,119z"/>
				<path class="st6" d="M118.2,273l-22,18l25.4-4.5c1.7-0.3,3.4,0.3,4.5,1.6c6.8,7.8,11,16.9,13.1,26.9l-1.1,0.3
					c2,1.8,3.6,3.5,4.6,5.2c0.1,0.2,0.2,0.3,0.3,0.5H50l-2-40c6-10.8,10.4-22.3,13.4-34.5c4-16.3,2.9-33.7,1.8-52.2
					c-0.1-1.7,1.5-3,3.1-2.6c2.8,0.7,5.9,1.6,7.7,2.9c7,4.7,8.8,14.9,6.6,26c-0.1,0.3-0.1,0.6,0,0.8c2.5,18.2,2.9,33.4,0.4,48.4
					c0,0.1,0,0.1,0,0.2l22.3-14.9c1.1-0.8,2.4-1.3,3.8-1.5l19.4-3.8l0.1,0l14.5-2.8l19-1c4.8,0.8,6,4.1,5.2,8.8
					c-0.5,2.5-2.2,4.6-4.6,5.4l-20.5,6.8L118.2,273z"/>
				<path class="st6" d="M336.9,218.1h0.1c5.4,3.6,8.2,16.1,8.9,26.4c0.1,1.5,0.1,3.1-0.1,4.7c-2.5,22.7-15.7,39.1-36.8,50.8
					c-25.2,13.9-65,7-84-27.5c-7.3-12.5-12-28.5-9-42.5c1-5,5-14,10.7-15h0.1c0-0.2,0-0.4,0-0.6c-0.1-4.1-0.2-8-0.3-11.3l0.1,0
					c0,0,0,0,0,0c0.5,0.8,1.1,1.6,1.7,2.4l18,23c4.6,6,11.5,9.9,19,10.8l21.3,2.6c8,0.9,16-1.5,22.1-6.7l19.4-16.6
					c1.4-1.1,2.6-2.4,3.7-3.8c2.5-3.2,4.4-6.9,5.4-10.9c-0.2,4.1-0.3,8.8-0.3,13.4c0,0.2,0,0.5,0,0.7
					C336.9,218,336.9,218.1,336.9,218.1z"/>
				<path class="st6" d="M317.2,108.5c-2.5,0.1-4.5,0.7-6.1,1.4c-0.7,0.8-1.1,1.9-1.1,3.1c0,2.8,2.2,5,5,5s5-2.2,5-5
					C320,111,318.8,109.3,317.2,108.5z M300.6,111.2c17.2-7.1,35.9-7.7,56.5-1.2c0,0,0,0,0,0c0.1,1.7,0.1,3.4,0.1,5.1
					c0,0,0,0.1,0,0.1c0,3.1,0,6.2,0,9.5c0,0.2-0.1,0.4-0.2,0.6c-0.9,2-1.9,4.1-3.2,6.4c-1.1,0.4-2.3,0.8-3.4,1.1
					c-14.6,4.2-30.4,3-46.8-1.6c-1.4-3.2-2.6-6.5-3.4-10c-0.6-3-1-6.2-0.8-9.5C299.8,111.5,300.2,111.4,300.6,111.2z"/>
				<path class="st6" d="M249.4,104.7c-1.4,0.9-2.4,2.5-2.4,4.3c0,2.8,2.2,5,5,5s5-2.2,5-5c0-1.9-1-3.5-2.5-4.4
					C252.5,104.5,250.9,104.5,249.4,104.7z M221,105c22.7-5.8,42.6-3.7,60.2,5.6c0.3,0.1,0.5,0.3,0.8,0.4c-0.3,7.2-2.8,13.3-6,19
					c-18.1,3.3-35,2.8-50-4c-4.6-10.1-5.5-17.6-5.4-21H221z"/>
				<path class="st6" d="M357.2,124.7c0.1-0.1,0.1-0.2,0.2-0.3c0.2-0.5,0.5-1.1,0.7-1.6l-0.4,1.6l-0.1,0.5c-0.1,0.1-0.2,0.2-0.3,0.2
					l-10.5,41.2l0,0.1l-9.6,37.5c-1,4-2.9,7.7-5.4,10.9c-1.1,1.4-2.3,2.7-3.7,3.8l-19.4,16.6c-6.1,5.2-14.1,7.6-22.1,6.7l-21.3-2.6
					c-7.5-0.9-14.4-4.8-19-10.8l-18-23c-0.6-0.8-1.2-1.6-1.7-2.4c0,0,0,0,0,0c-2.2-3.5-3.6-7.5-4.2-11.6l-4.6-35.6l-4.8-36.8
					c0.3-3.1,0.6-6.2,1-9.1c0-0.1,0-0.1,0-0.2c0.2-1.6,0.4-3.3,0.7-4.9h0.1l5.8,0.1c-0.1,3.4,0.8,10.9,5.4,21c15,6.8,31.9,7.3,50,4
					c3.2-5.7,5.7-11.8,6-19c-0.3-0.1-0.5-0.3-0.8-0.4c0,0,7-2.3,19.4,0.6c-0.4,0.2-0.8,0.3-1.2,0.5c-0.2,3.3,0.2,6.5,0.8,9.5
					c0.8,3.5,2,6.8,3.4,10c16.4,4.6,32.2,5.8,46.8,1.6c1.1-0.3,2.3-0.7,3.4-1.1c1.3-2.3,2.3-4.4,3.2-6.4
					C357.1,125.1,357.2,124.9,357.2,124.7z"/>
				<path class="st6" d="M351.9,81c3.3,7.6,4.7,17.7,5.2,29c-20.6-6.5-39.3-5.9-56.5,1.2c-12.4-2.9-19.4-0.6-19.4-0.6
					c-17.6-9.3-37.5-11.4-60.2-5.6h-0.4l-5.8-0.1h-0.1c1.8-11.9,4.4-21.9,8.2-28.9c-0.6-13.3,2.3-25.4,9-36c3.1-4.8,8.6-8.8,16-12
					c1.6,4.2-0.4,8.5-7,13c26.7,6.1,58.4-4.6,87-15l20,18C353.7,55,354.5,67.5,351.9,81z M348.5,100.5l-7.7-10.3l-0.5-0.9l-1.5,0.1
					c-2.8,0.1-5.5,0.4-8.3,0.6l-8.3,0.8c-2.8,0.3-5.5,0.6-8.3,0.9l-4.1,0.5c-1.3,0.2-2.7,0.4-4,1.2l0.6,5c1.4,0.5,2.8,0.4,4.2,0.2
					l4.1-0.5c2.7-0.3,5.4-0.7,8.2-1.1l8.2-1.2c2.4-0.4,4.9-0.8,7.3-1.2l9.1,6.9L348.5,100.5z M274.2,97.3l1.6-4.7
					c-1.1-1.3-2.5-1.6-4-2.1l-4.1-1.4l-8.3-2.6c-2.7-0.8-5.5-1.7-8.3-2.5c-2.8-0.8-5.6-1.7-8.4-2.4l-1.6-0.4l-0.8,0.9l-9.8,11.3
					l1,1.1l10.8-7.7c2.3,0.9,4.7,1.8,7,2.7c2.7,1,5.5,2,8.2,3l8.2,2.8l4.1,1.4C271.2,97.1,272.5,97.8,274.2,97.3z"/>
				<path class="st4" d="M338.8,89.4l1.5-0.1l0.5,0.9l7.7,10.3l-1,1l-9.1-6.9c0.3-0.1,0.6-0.1,0.9-0.2l-2.1-0.7l1.2,0.9
					c-2.4,0.4-4.9,0.8-7.3,1.2l-8.2,1.2c-2.8,0.4-5.5,0.8-8.2,1.1l-4.1,0.5c-1.4,0.2-2.8,0.3-4.2-0.2l-0.6-5c1.3-0.8,2.7-1,4-1.2
					l4.1-0.5c2.8-0.3,5.5-0.6,8.3-0.9l8.3-0.8C333.3,89.8,336,89.5,338.8,89.4z"/>
				<path class="st4" d="M275.8,92.6l-1.6,4.7c-1.7,0.5-3-0.2-4.4-0.6l-4.1-1.4l-8.2-2.8c-2.7-1-5.5-2-8.2-3c-2.3-0.9-4.7-1.8-7-2.7
					l1.4-1l-2.5,0.5c0.4,0.2,0.7,0.3,1.1,0.5l-10.8,7.7l-1-1.1l9.8-11.3l0.8-0.9l1.6,0.4c2.8,0.7,5.6,1.6,8.4,2.4
					c2.8,0.8,5.6,1.7,8.3,2.5l8.3,2.6l4.1,1.4C273.3,91,274.7,91.3,275.8,92.6z"/>
			</g>
			<g>
				<polyline class="st7" points="81.5,269.5 81,269.8 71.5,276.5 				"/>
				<line class="st7" x1="96.6" y1="290.5" x2="84.5" y2="293.5"/>
				<path class="st7" d="M89,313l37-6c4.6,2.6,8.8,5.5,12.1,8.3c2,1.8,3.6,3.5,4.6,5.2c0.1,0.2,0.2,0.3,0.3,0.5H50l-2-40
					c6-10.8,10.4-22.3,13.4-34.5c4-16.3,2.9-33.7,1.8-52.2c-0.1-1.7,1.5-3,3.1-2.6c2.8,0.7,5.9,1.6,7.7,2.9c7,4.7,8.8,14.9,6.6,26
					c-0.1,0.3-0.1,0.6,0,0.8c2.5,18.2,2.9,33.4,0.4,48.4c0,0.1,0,0.1,0,0.2l22.3-14.9c1.1-0.8,2.4-1.3,3.8-1.5l19.4-3.8l0.1,0
					l14.5-2.8l19-1c4.8,0.8,6,4.1,5.2,8.8c-0.5,2.5-2.2,4.6-4.6,5.4l-20.5,6.8l-22,6l-22,18l25.4-4.5c1.7-0.3,3.4,0.3,4.5,1.6
					c6.8,7.8,11,16.9,13.1,26.9"/>
				<line class="st7" x1="226.7" y1="214.4" x2="126.5" y2="249.8"/>
				<polyline class="st7" points="142.7,320.5 399.3,320.3 399,247 336.9,217.3 				"/>
				<path class="st7" d="M226.7,215c-5.7,1-9.7,10-10.7,15c-3,14,1.7,30,9,42.5c19,34.5,58.8,41.4,84,27.5
					c21.1-11.7,34.3-28.1,36.8-50.8c0.2-1.6,0.2-3.2,0.1-4.7c-0.7-10.3-3.5-22.8-8.9-26.4"/>
				<path class="st7" d="M257,186c16,6.3,33.4,8.3,52,6"/>
				<path class="st7" d="M273,209c4.7-2.9,9.3-2.5,14,1"/>
				<path class="st7" d="M272,198c0,0,10,4,19,2"/>
				<path class="st7" d="M93.7,76.3C95.5,70.7,95,64,95,64s-1-11-6-13c-3.2-2.1-7.3-0.2-12,4c-3,3.6-5.4,9.5-7,18
					c-0.5,7.2,0.1,12.9,1.9,17.3"/>
				<path class="st7" d="M54.7,104.5L60,63c0,0,1-13,15-20c6.5-2.3,13.5-3,22,0c5.8,3.6,8.3,10.1,10,17l2,8.9"/>
				<path class="st7" d="M31.3,137.1c0.5-0.8,1.1-1.4,1.8-1.8c6.3-4.2,19.5,4.7,29.5,19.9c10,15.1,13,30.8,6.7,35
					c-0.7,0.5-1.6,0.8-2.6,0.9c-0.4,0.1-0.7,0.1-1.1,0.1c-0.2,0-0.4,0-0.7,0c-0.3,0-0.6-0.1-0.9-0.1c-6.9-1.1-16.5-9.1-24.3-20.8
					C30.9,156.8,27.6,142.9,31.3,137.1z"/>
				<path class="st7" d="M109,68.9c1.1-0.5,2.3-0.9,3.5-1.4c26.4,1.4,44.8,19,55,51c2,7,4.7,24.1-3,36c-24.6,18.4-49.2,30.9-74,35
					c-7.8,1.2-15.7,1.9-23.8,1.6c-0.4,0-0.7,0-1.1,0c-0.2,0-0.4,0-0.7,0c-0.3,0-0.6,0-0.9,0c-0.4,0-0.7,0-1.1-0.1"/>
				<path class="st7" d="M71.9,90.3c7-5.2,14.3-9.9,21.7-14"/>
				<path class="st7" d="M31.3,137.1c3.3-9.1,10.1-19.2,21.2-30.6c0.7-0.7,1.5-1.4,2.2-2"/>
				<path class="st7" d="M202,110c0,0,5.9,3.5,10.8,9c0.1,0.1,0.2,0.2,0.2,0.3c0-0.1,0-0.1,0-0.2c0.3-3.1,0.6-6.2,1-9.1
					c0-0.1,0-0.1,0-0.2c0.2-1.6,0.4-3.3,0.7-4.9c1.8-11.9,4.4-21.9,8.2-28.9c-0.6-13.3,2.3-25.4,9-36c3.1-4.8,8.6-8.8,16-12
					c1.6,4.2-0.4,8.5-7,13c26.7,6.1,58.4-4.6,87-15l20,18c5.8,11,6.6,23.5,4,37c3.3,7.6,4.7,17.7,5.2,29c0,0,0,0,0,0
					c0.1,1.7,0.1,3.4,0.1,5.1c0,0,0,0.1,0,0.1c0,3.1,0,6.2,0,9.5c0,0.1,0,0.2,0,0.3"/>
				<path class="st7" d="M337.2,203.9c-1,4-2.9,7.7-5.4,10.9c-1.1,1.4-2.3,2.7-3.7,3.8l-19.4,16.6c-6.1,5.2-14.1,7.6-22.1,6.7
					l-21.3-2.6c-7.5-0.9-14.4-4.8-19-10.8l-18-23c-0.6-0.8-1.2-1.6-1.7-2.4c0,0,0,0,0,0c-2.2-3.5-3.6-7.5-4.2-11.6l-4.6-35.6
					l-4.8-36.8l0-0.1l-1.5-11.7l0-0.2l-0.3-2.3v0l-5.5-42.1c-0.1-0.9,0-1.9,0.3-2.8l9-27.2c0.2-0.6,0.5-1.2,0.9-1.7
					c8.1-11.3,17.4-21.2,28.3-29.5l96-0.5c11.1,12.1,18.9,25.3,23.8,39.4c0.1,0.4,0.3,0.9,0.3,1.3l4.7,31c0.1,0.9,0.1,1.8-0.1,2.7
					l-8.2,35.8l-0.6,2.5l0,0.2l-2,8.9l-0.4,1.6l-0.1,0.5l-0.1,0.2"/>
				<polyline class="st7" points="357.3,125.1 346.8,166.3 346.8,166.4 337.2,203.9 				"/>
				<path class="st7" d="M215,111c-0.3-0.4-0.6-0.7-0.9-1.1c0,0-0.1-0.1-0.1-0.1c-0.8-1-1.6-1.8-2.5-2.5c-0.1-0.1-0.1-0.1-0.2-0.2
					c-1.2-1-2.4-1.8-3.6-2.4c-2.1-1-4.4-1.3-6.7-0.7c-4.4,5-5.3,10.4-4,16c4.9,7.9,7.8,14.8,8,20l1,12c2.2,6.7,6.5,5.4,11.7,3.9"/>
				<path class="st7" d="M364,120c0,0-3,1.9-6.4,4.9c-0.1,0.1-0.2,0.2-0.3,0.2c-0.1,0.1-0.2,0.1-0.2,0.2"/>
				<path class="st7" d="M357.3,115.2c0.9-0.5,1.7-0.9,2.5-1.3c0.1-0.1,0.2-0.1,0.3-0.2c0.2-0.1,0.4-0.2,0.6-0.2c0,0,0,0,0,0
					c3.8-1.7,6.9-2.1,7.2,0.6c-0.1,10.5-5,23.3-11,39c1.4,5.3-1.7,9-3,10c-2.1,1.2-4.6,2.3-7.2,3.3"/>
				<path class="st7" d="M226.5,203.1c0.1,3.3,0.2,7.2,0.3,11.3c0,0.2,0,0.4,0,0.6c0.1,12.4-0.6,26.8-3.7,33"/>
				<path class="st7" d="M337.2,203.9c-0.2,4.1-0.3,8.8-0.3,13.4c0,0.2,0,0.5,0,0.7c0,0,0,0.1,0,0.1c0,13,0.8,26.1,4.1,28.9"/>
				<path class="st7" d="M275,162c-11,1-4-13.5-4-13.5"/>
				<path class="st7" d="M299.1,164.6c10.8,2.1,5.4-13,5.4-13"/>
				<path class="st7" d="M301,162l-3-2c-3.6,3.8-7.3,5-11,5c-3.8-1.2-6.7-3.8-9-7l-3,1"/>
				<path class="st8" d="M207.7,104.7l3.3,0.1l0.2,0l3.5,0.1h0.1l5.8,0.1h0.4c22.7-5.8,42.6-3.7,60.2,5.6c0.3,0.1,0.5,0.3,0.8,0.4
					c-0.3,7.2-2.8,13.3-6,19c-18.1,3.3-35,2.8-50-4c-4.6-10.1-5.5-17.6-5.4-21"/>
				<path class="st8" d="M300.6,111.2c-0.4,0.2-0.8,0.3-1.2,0.5c-0.2,3.3,0.2,6.5,0.8,9.5c0.8,3.5,2,6.8,3.4,10
					c16.4,4.6,32.2,5.8,46.8,1.6c1.1-0.3,2.3-0.7,3.4-1.1c1.3-2.3,2.3-4.4,3.2-6.4c0.1-0.2,0.2-0.4,0.2-0.6c0.1-0.1,0.1-0.2,0.2-0.3
					c0.2-0.5,0.5-1.1,0.7-1.6c1.5-3.8,2.3-6.9,2.7-9.3c0,0,0-0.1,0-0.1c0.1-0.8,0.2-1.6,0.3-2.2c-0.3,0-0.4,0-0.4,0
					c-0.1,0-0.1-0.1-0.2-0.1c-1.1-0.4-2.2-0.8-3.3-1.1c0,0-0.1,0-0.1,0C336.5,103.5,317.8,104.1,300.6,111.2"/>
				<path class="st8" d="M281.2,110.6c0,0,7-2.3,19.4,0.6"/>
				<path class="st9" d="M249.4,104.7c-5.3,0.7-7.4,3.3-7.4,3.3"/>
				<path class="st9" d="M275,112c-8.8-4.9-15.6-6.9-20.5-7.4"/>
				<path class="st9" d="M311.1,109.9c-3.5,1.6-5.1,4.1-5.1,4.1"/>
				<path class="st9" d="M336,115c-8-5.1-14.2-6.6-18.8-6.5"/>
				<path class="st9" d="M254.5,104.6c1.5,0.9,2.5,2.5,2.5,4.4c0,2.8-2.2,5-5,5s-5-2.2-5-5c0-1.8,1-3.4,2.4-4.3
					C250.9,104.5,252.5,104.5,254.5,104.6z"/>
				<path class="st9" d="M317.2,108.5c1.6,0.8,2.8,2.5,2.8,4.5c0,2.8-2.2,5-5,5s-5-2.2-5-5c0-1.2,0.4-2.3,1.1-3.1
					C312.7,109.2,314.7,108.6,317.2,108.5z"/>
			</g>
</g>
</svg>
