<?xml version="1.0" encoding="utf-8"?>
<!-- Generator: Adobe Illustrator 22.1.0, SVG Export Plug-In . SVG Version: 6.00 Build 0)  -->
<svg version="1.1" id="Layer_1" xmlns="http://www.w3.org/2000/svg" xmlns:xlink="http://www.w3.org/1999/xlink" x="0px" y="0px"
	 viewBox="0 0 263 359.3" style="enable-background:new 0 0 263 359.3;" xml:space="preserve">
<style type="text/css">
	.st0{fill:none;stroke:#000000;stroke-width:3;stroke-linejoin:round;stroke-miterlimit:10;}
	.st1{fill:#fafafa;stroke:#000000;stroke-miterlimit:10;}
</style>
<g id="brackets">
	<g>
		<polyline class="st0" points="86,181.8 3,263.8 86,335.8 		"/>
	</g>
	<line class="st0" x1="166" y1="161.3" x2="97.1" y2="356.3"/>
	<g>
		<polyline class="st0" points="177,181.8 260,263.8 177,335.8 		"/>
	</g>
</g>
<g id="md-sparkle">
	<g id="XMLID_1_">
		<g>
			<polygon class="st1" points="227.4,74.6 194.7,83 187,113 179.3,83 146.6,74.6 179,66.3 187,35 195,66.3 			"/>
		</g>
	</g>
</g>
<g id="lg-sparkle">
	<g id="XMLID_2_">
		<g>
			<polygon class="st1" points="119.8,117.4 97.3,123.2 92,143.8 86.7,123.2 64.2,117.4 86.5,111.7 92,90.2 97.5,111.7 			"/>
		</g>
	</g>
</g>
<g id="sm-sparkle">
	<g id="XMLID_3_">
		<g>
			<polygon class="st1" points="152.2,20.3 135.8,24.5 132,39.5 128.2,24.5 111.8,20.3 128,16.2 132,0.5 136,16.2 			"/>
		</g>
	</g>
</g>
</svg>
