<?xml version="1.0" encoding="utf-8"?>
<!-- Generator: Adobe Illustrator 22.1.0, SVG Export Plug-In . SVG Version: 6.00 Build 0)  -->
<svg version="1.1" id="Layer_1" xmlns="http://www.w3.org/2000/svg" xmlns:xlink="http://www.w3.org/1999/xlink" x="0px" y="0px"
	 viewBox="0 0 263 359.3" style="enable-background:new 0 0 263 359.3;" xml:space="preserve">
<style type="text/css">
	.st0{fill:none;stroke:#000000;stroke-width:6;stroke-linecap:round;stroke-linejoin:round;stroke-miterlimit:10;}
	.st1{fill:#FFFFFF;stroke:#000000;stroke-width:6;stroke-linecap:round;stroke-linejoin:round;stroke-miterlimit:10;}
	.st2{fill:none;stroke:#000000;stroke-linecap:round;stroke-linejoin:round;stroke-miterlimit:10;}
</style>
<g id="brackets">
	<g>
		<polyline class="st0" points="86,181.8 3,263.8 86,335.8 		"/>
	</g>
	<line class="st1" x1="166" y1="161.3" x2="97.1" y2="356.3"/>
	<g>
		<polyline class="st0" points="177,181.8 260,263.8 177,335.8 		"/>
	</g>
</g>
<g id="md-sparkle">
	<g id="XMLID_1_">
		<g>
			<polygon points="227.4,74.6 194.7,83 195.8,78.6 193,78.6 193,69.4 195.8,69.4 195,66.3 			"/>
			<polygon points="195,66.3 195.8,69.4 193,69.4 193,65.8 			"/>
			<polygon points="195.8,78.6 194.7,83 193,83.4 193,78.6 			"/>
			<polygon points="187,35 195,66.3 193,65.8 193,69.4 181,69.4 181,65.8 179,66.3 			"/>
			<polygon points="194.7,83 187,113 179.3,83 181,83.4 181,78.6 193,78.6 193,83.4 			"/>
			<rect x="181" y="69.4" width="12" height="9.2"/>
			<polygon points="181,78.6 181,83.4 179.3,83 178.2,78.6 			"/>
			<polygon points="181,69.4 181,78.6 178.2,78.6 179.3,83 146.6,74.6 179,66.3 178.2,69.4 			"/>
			<polygon points="181,65.8 181,69.4 178.2,69.4 179,66.3 			"/>
		</g>
		<g>
			<line class="st2" x1="193" y1="69.4" x2="181" y2="69.4"/>
			<polyline class="st2" points="179,66.3 187,35 195,66.3 			"/>
			<line class="st2" x1="179.3" y1="83" x2="187" y2="113"/>
			<line class="st2" x1="193" y1="78.6" x2="181" y2="78.6"/>
			<line class="st2" x1="187" y1="113" x2="194.7" y2="83"/>
			<polygon class="st2" points="181,78.6 181,83.4 179.3,83 146.6,74.6 179,66.3 181,65.8 181,69.4 			"/>
			<polygon class="st2" points="193,78.6 193,83.4 194.7,83 227.4,74.6 195,66.3 193,65.8 193,69.4 			"/>
		</g>
	</g>
</g>
<g id="lg-sparkle">
	<g id="XMLID_2_">
		<g>
			<polygon points="119.8,117.4 97.3,123.2 98.1,120.2 96.1,120.2 96.1,113.8 98.1,113.8 97.5,111.7 			"/>
			<polygon points="97.5,111.7 98.1,113.8 96.1,113.8 96.1,111.4 			"/>
			<polygon points="98.1,120.2 97.3,123.2 96.1,123.5 96.1,120.2 			"/>
			<polygon points="92,90.2 97.5,111.7 96.1,111.4 96.1,113.8 87.9,113.8 87.9,111.4 86.5,111.7 			"/>
			<polygon points="97.3,123.2 92,143.8 86.7,123.2 87.9,123.5 87.9,120.2 96.1,120.2 96.1,123.5 			"/>
			<rect x="87.9" y="113.8" width="8.3" height="6.3"/>
			<polygon points="87.9,120.2 87.9,123.5 86.7,123.2 85.9,120.2 			"/>
			<polygon points="87.9,113.8 87.9,120.2 85.9,120.2 86.7,123.2 64.2,117.4 86.5,111.7 85.9,113.8 			"/>
			<polygon points="87.9,111.4 87.9,113.8 85.9,113.8 86.5,111.7 			"/>
		</g>
		<g>
			<line class="st2" x1="96.1" y1="113.8" x2="87.9" y2="113.8"/>
			<polyline class="st2" points="86.5,111.7 92,90.2 97.5,111.7 			"/>
			<line class="st2" x1="86.7" y1="123.2" x2="92" y2="143.8"/>
			<line class="st2" x1="96.1" y1="120.2" x2="87.9" y2="120.2"/>
			<line class="st2" x1="92" y1="143.8" x2="97.3" y2="123.2"/>
			<polygon class="st2" points="87.9,120.2 87.9,123.5 86.7,123.2 64.2,117.4 86.5,111.7 87.9,111.4 87.9,113.8 			"/>
			<polygon class="st2" points="96.1,120.2 96.1,123.5 97.3,123.2 119.8,117.4 97.5,111.7 96.1,111.4 96.1,113.8 			"/>
		</g>
	</g>
</g>
<g id="sm-sparkle">
	<g id="XMLID_3_">
		<g>
			<polygon points="152.2,20.3 135.8,24.5 136.4,22.3 135,22.3 135,17.7 136.4,17.7 136,16.2 			"/>
			<polygon points="136,16.2 136.4,17.7 135,17.7 135,15.9 			"/>
			<polygon points="136.4,22.3 135.8,24.5 135,24.7 135,22.3 			"/>
			<polygon points="132,0.5 136,16.2 135,15.9 135,17.7 129,17.7 129,15.9 128,16.2 			"/>
			<polygon points="135.8,24.5 132,39.5 128.2,24.5 129,24.7 129,22.3 135,22.3 135,24.7 			"/>
			<rect x="129" y="17.7" width="6" height="4.6"/>
			<polygon points="129,22.3 129,24.7 128.2,24.5 127.6,22.3 			"/>
			<polygon points="129,17.7 129,22.3 127.6,22.3 128.2,24.5 111.8,20.3 128,16.2 127.6,17.7 			"/>
			<polygon points="129,15.9 129,17.7 127.6,17.7 128,16.2 			"/>
		</g>
		<g>
			<line class="st2" x1="135" y1="17.7" x2="129" y2="17.7"/>
			<polyline class="st2" points="128,16.2 132,0.5 136,16.2 			"/>
			<line class="st2" x1="128.2" y1="24.5" x2="132" y2="39.5"/>
			<line class="st2" x1="135" y1="22.3" x2="129" y2="22.3"/>
			<line class="st2" x1="132" y1="39.5" x2="135.8" y2="24.5"/>
			<polygon class="st2" points="129,22.3 129,24.7 128.2,24.5 111.8,20.3 128,16.2 129,15.9 129,17.7 			"/>
			<polygon class="st2" points="135,22.3 135,24.7 135.8,24.5 152.2,20.3 136,16.2 135,15.9 135,17.7 			"/>
		</g>
	</g>
</g>
</svg>
