<?xml version="1.0" encoding="utf-8"?>
<!-- Generator: Adobe Illustrator 22.1.0, SVG Export Plug-In . SVG Version: 6.00 Build 0)  -->
<svg version="1.1" id="Layer_1" xmlns="http://www.w3.org/2000/svg" xmlns:xlink="http://www.w3.org/1999/xlink" x="0px" y="0px"
	 viewBox="0 0 194 212.5" style="enable-background:new 0 0 194 212.5;" xml:space="preserve">
<style type="text/css">
	.st0{fill:#fafafa;stroke:#000000;stroke-width:2;stroke-miterlimit:10;}
	.st1{fill:none;stroke:#000000;stroke-width:2;stroke-miterlimit:10;}
	.st2{fill:none;stroke:#000000;stroke-miterlimit:10;}
</style>
<g>
	<path class="st0" d="M98,209.5h10.3v-6.8h6.9c0,0,0-20.3,0-27c3.4-23.7,37.9-30.4,41.4-67.6c3.4-30.4-13.4-64.2-58.2-67.6
		c-44.8,3.4-62,37.2-58.6,67.6c3.4,37.2,37.9,43.9,41.4,67.6c0,6.8,0,27,0,27h6.9v6.8h10.3"/>
	<line class="st1" x1="115.2" y1="183.5" x2="81.2" y2="183.5"/>
	<line class="st1" x1="115.2" y1="193.3" x2="81.2" y2="193.3"/>
	<line class="st1" x1="115.2" y1="202.6" x2="81.2" y2="202.6"/>
	<path class="st0" d="M94.5,184c0,0,0.5-38,0.5-61.9c-0.4-8.6-1.2-15.2-2.5-17.1c-2-3-7.5-4.5-11-1c-3,3-3,8,0,12
		c4,4,8.9,5.5,13.5,6.1"/>
	<path class="st0" d="M102.5,122c4.6-0.5,9.5-2.5,13.5-6.5c3-4,3-9,0-12c-3.5-3.5-9-2-11,1c-1.3,1.9-2.1,8.5-2.5,17.1
		c0,23.9,0.5,61.9,0.5,61.9"/>
</g>
<path class="st0" d="M102.5,122c-2.5,0.6-5,0.6-7.5,0"/>
<g id="light">
	<line class="st2" x1="98.5" y1="30" x2="98.5" y2="0"/>
	<g>
		<line class="st2" x1="38.5" y1="66.8" x2="12.4" y2="48.2"/>
		<line class="st2" x1="62.5" y1="39.7" x2="48.5" y2="13.3"/>
		<line class="st2" x1="30" y1="103" x2="0" y2="103"/>
		<line class="st2" x1="37.7" y1="138.4" x2="11.3" y2="152.6"/>
	</g>
	<g>
		<line class="st2" x1="155.5" y1="64.8" x2="181.6" y2="46.2"/>
		<line class="st2" x1="131.5" y1="37.7" x2="145.5" y2="11.3"/>
		<line class="st2" x1="164" y1="101" x2="194" y2="101"/>
		<line class="st2" x1="156.3" y1="136.4" x2="182.7" y2="150.6"/>
	</g>
</g>
</svg>
